<mxfile host="app.diagrams.net" agent="Mozilla/5.0 (Windows NT 10.0; Win64; x64) AppleWebKit/537.36 (KHTML, like Gecko) Chrome/136.0.0.0 Safari/537.36 Edg/136.0.0.0" version="27.1.4">
  <diagram name="第 1 页" id="k27V_l-N-1-6e9h-gz-H">
    <mxGraphModel dx="1392" dy="767" grid="1" gridSize="10" guides="1" tooltips="1" connect="1" arrows="1" fold="1" page="1" pageScale="1" pageWidth="827" pageHeight="1169" math="0" shadow="0">
      <root>
        <mxCell id="0" />
        <mxCell id="1" parent="0" />
        <mxCell id="jctt1tN-b0dJctbKbRJ4-1" value="测试工程师" style="shape=umlActor;verticalLabelPosition=bottom;verticalAlign=top;html=1;outlineConnect=0;" parent="1" vertex="1">
          <mxGeometry x="140" y="240" width="30" height="60" as="geometry" />
        </mxCell>
        <mxCell id="jctt1tN-b0dJctbKbRJ4-2" value="" style="rounded=0;whiteSpace=wrap;html=1;fillColor=#d5e8d4;strokeColor=#82b366;" parent="1" vertex="1">
          <mxGeometry x="260" y="120" width="200" height="500" as="geometry" />
        </mxCell>
        <mxCell id="jctt1tN-b0dJctbKbRJ4-5" value="埋点SDK" style="rounded=1;whiteSpace=wrap;html=1;fillColor=#fff2cc;strokeColor=#d6b656;" parent="1" vertex="1">
          <mxGeometry x="300" y="180" width="120" height="60" as="geometry" />
        </mxCell>
        <mxCell id="jctt1tN-b0dJctbKbRJ4-6" value="车机" style="text;html=1;align=center;verticalAlign=middle;whiteSpace=wrap;rounded=0;fontSize=20;" parent="1" vertex="1">
          <mxGeometry x="260" y="120" width="60" height="30" as="geometry" />
        </mxCell>
        <mxCell id="jctt1tN-b0dJctbKbRJ4-7" style="edgeStyle=orthogonalEdgeStyle;rounded=0;orthogonalLoop=1;jettySize=auto;html=1;curved=1;entryX=0;entryY=0.5;entryDx=0;entryDy=0;" parent="1" source="jctt1tN-b0dJctbKbRJ4-1" target="jctt1tN-b0dJctbKbRJ4-5" edge="1">
          <mxGeometry relative="1" as="geometry">
            <mxPoint x="280" y="210" as="targetPoint" />
          </mxGeometry>
        </mxCell>
        <mxCell id="jctt1tN-b0dJctbKbRJ4-8" value="1.打开Debug模式" style="edgeLabel;html=1;align=center;verticalAlign=middle;resizable=0;points=[];" parent="jctt1tN-b0dJctbKbRJ4-7" vertex="1" connectable="0">
          <mxGeometry x="0.0588" y="-1" relative="1" as="geometry">
            <mxPoint as="offset" />
          </mxGeometry>
        </mxCell>
        <mxCell id="jctt1tN-b0dJctbKbRJ4-10" value="" style="rounded=0;whiteSpace=wrap;html=1;fillColor=#dae8fc;strokeColor=#6c8ebf;" parent="1" vertex="1">
          <mxGeometry x="570" y="120" width="470" height="370" as="geometry" />
        </mxCell>
        <mxCell id="jctt1tN-b0dJctbKbRJ4-11" value="数据采集中心" style="text;html=1;align=center;verticalAlign=middle;whiteSpace=wrap;rounded=0;fontSize=20;" parent="1" vertex="1">
          <mxGeometry x="570" y="120" width="140" height="30" as="geometry" />
        </mxCell>
        <mxCell id="jctt1tN-b0dJctbKbRJ4-16" style="edgeStyle=orthogonalEdgeStyle;rounded=0;orthogonalLoop=1;jettySize=auto;html=1;entryX=0.5;entryY=1;entryDx=0;entryDy=0;curved=1;exitX=0.5;exitY=1;exitDx=0;exitDy=0;" parent="1" source="jctt1tN-b0dJctbKbRJ4-13" target="jctt1tN-b0dJctbKbRJ4-5" edge="1">
          <mxGeometry relative="1" as="geometry" />
        </mxCell>
        <mxCell id="jctt1tN-b0dJctbKbRJ4-17" value="3. 返回ws具体地址" style="edgeLabel;html=1;align=center;verticalAlign=middle;resizable=0;points=[];" parent="jctt1tN-b0dJctbKbRJ4-16" vertex="1" connectable="0">
          <mxGeometry x="0.0571" y="-1" relative="1" as="geometry">
            <mxPoint as="offset" />
          </mxGeometry>
        </mxCell>
        <mxCell id="jctt1tN-b0dJctbKbRJ4-13" value="API服务" style="rounded=1;whiteSpace=wrap;html=1;fillColor=#f8cecc;strokeColor=#b85450;" parent="1" vertex="1">
          <mxGeometry x="590" y="200" width="120" height="60" as="geometry" />
        </mxCell>
        <mxCell id="jctt1tN-b0dJctbKbRJ4-14" style="edgeStyle=orthogonalEdgeStyle;rounded=0;orthogonalLoop=1;jettySize=auto;html=1;exitX=0.5;exitY=0;exitDx=0;exitDy=0;entryX=0.5;entryY=0;entryDx=0;entryDy=0;curved=1;" parent="1" source="jctt1tN-b0dJctbKbRJ4-5" target="jctt1tN-b0dJctbKbRJ4-13" edge="1">
          <mxGeometry relative="1" as="geometry" />
        </mxCell>
        <mxCell id="jctt1tN-b0dJctbKbRJ4-15" value="2.请求获取ws连接" style="edgeLabel;html=1;align=center;verticalAlign=middle;resizable=0;points=[];" parent="jctt1tN-b0dJctbKbRJ4-14" vertex="1" connectable="0">
          <mxGeometry x="-0.0421" y="-2" relative="1" as="geometry">
            <mxPoint x="7" as="offset" />
          </mxGeometry>
        </mxCell>
        <mxCell id="jctt1tN-b0dJctbKbRJ4-27" style="edgeStyle=orthogonalEdgeStyle;rounded=0;orthogonalLoop=1;jettySize=auto;html=1;entryX=0.5;entryY=1;entryDx=0;entryDy=0;curved=1;" parent="1" source="jctt1tN-b0dJctbKbRJ4-18" target="jctt1tN-b0dJctbKbRJ4-5" edge="1">
          <mxGeometry relative="1" as="geometry">
            <Array as="points">
              <mxPoint x="650" y="420" />
              <mxPoint x="360" y="420" />
            </Array>
          </mxGeometry>
        </mxCell>
        <mxCell id="jctt1tN-b0dJctbKbRJ4-28" value="7.下发任务配置" style="edgeLabel;html=1;align=center;verticalAlign=middle;resizable=0;points=[];" parent="jctt1tN-b0dJctbKbRJ4-27" vertex="1" connectable="0">
          <mxGeometry x="-0.244" y="3" relative="1" as="geometry">
            <mxPoint as="offset" />
          </mxGeometry>
        </mxCell>
        <mxCell id="jctt1tN-b0dJctbKbRJ4-40" style="edgeStyle=orthogonalEdgeStyle;rounded=0;orthogonalLoop=1;jettySize=auto;html=1;entryX=0;entryY=0.5;entryDx=0;entryDy=0;exitX=0.5;exitY=1;exitDx=0;exitDy=0;curved=1;" parent="1" source="jctt1tN-b0dJctbKbRJ4-18" target="jctt1tN-b0dJctbKbRJ4-39" edge="1">
          <mxGeometry relative="1" as="geometry" />
        </mxCell>
        <mxCell id="jctt1tN-b0dJctbKbRJ4-41" value="11. 写入kafka" style="edgeLabel;html=1;align=center;verticalAlign=middle;resizable=0;points=[];" parent="jctt1tN-b0dJctbKbRJ4-40" vertex="1" connectable="0">
          <mxGeometry x="0.0286" y="3" relative="1" as="geometry">
            <mxPoint x="18" y="-7" as="offset" />
          </mxGeometry>
        </mxCell>
        <mxCell id="jctt1tN-b0dJctbKbRJ4-18" value="websocket服务" style="rounded=1;whiteSpace=wrap;html=1;fillColor=#f8cecc;strokeColor=#b85450;" parent="1" vertex="1">
          <mxGeometry x="590" y="320" width="120" height="60" as="geometry" />
        </mxCell>
        <mxCell id="jctt1tN-b0dJctbKbRJ4-19" style="edgeStyle=orthogonalEdgeStyle;rounded=0;orthogonalLoop=1;jettySize=auto;html=1;entryX=0;entryY=0.5;entryDx=0;entryDy=0;curved=1;exitX=0.5;exitY=1;exitDx=0;exitDy=0;" parent="1" source="jctt1tN-b0dJctbKbRJ4-5" target="jctt1tN-b0dJctbKbRJ4-18" edge="1">
          <mxGeometry relative="1" as="geometry">
            <Array as="points">
              <mxPoint x="360" y="370" />
              <mxPoint x="580" y="370" />
              <mxPoint x="580" y="350" />
            </Array>
          </mxGeometry>
        </mxCell>
        <mxCell id="jctt1tN-b0dJctbKbRJ4-20" value="4. 建立ws连接：did+openid" style="edgeLabel;html=1;align=center;verticalAlign=middle;resizable=0;points=[];" parent="jctt1tN-b0dJctbKbRJ4-19" vertex="1" connectable="0">
          <mxGeometry x="0.3909" y="11" relative="1" as="geometry">
            <mxPoint x="-14" y="11" as="offset" />
          </mxGeometry>
        </mxCell>
        <mxCell id="jctt1tN-b0dJctbKbRJ4-23" style="edgeStyle=orthogonalEdgeStyle;rounded=0;orthogonalLoop=1;jettySize=auto;html=1;exitX=0.5;exitY=0.5;exitDx=0;exitDy=0;exitPerimeter=0;entryX=1;entryY=0.5;entryDx=0;entryDy=0;curved=1;" parent="1" source="jctt1tN-b0dJctbKbRJ4-21" target="jctt1tN-b0dJctbKbRJ4-22" edge="1">
          <mxGeometry relative="1" as="geometry" />
        </mxCell>
        <mxCell id="jctt1tN-b0dJctbKbRJ4-24" value="5.创建测试任务" style="edgeLabel;html=1;align=center;verticalAlign=middle;resizable=0;points=[];" parent="jctt1tN-b0dJctbKbRJ4-23" vertex="1" connectable="0">
          <mxGeometry x="-0.04" y="-1" relative="1" as="geometry">
            <mxPoint as="offset" />
          </mxGeometry>
        </mxCell>
        <mxCell id="jctt1tN-b0dJctbKbRJ4-57" style="edgeStyle=orthogonalEdgeStyle;rounded=0;orthogonalLoop=1;jettySize=auto;html=1;entryX=1;entryY=0.5;entryDx=0;entryDy=0;curved=1;" parent="1" source="jctt1tN-b0dJctbKbRJ4-21" target="jctt1tN-b0dJctbKbRJ4-18" edge="1">
          <mxGeometry relative="1" as="geometry">
            <Array as="points">
              <mxPoint x="1085" y="50" />
              <mxPoint x="720" y="50" />
              <mxPoint x="720" y="350" />
            </Array>
          </mxGeometry>
        </mxCell>
        <mxCell id="jctt1tN-b0dJctbKbRJ4-58" value="16. 完成测试任务" style="edgeLabel;html=1;align=center;verticalAlign=middle;resizable=0;points=[];" parent="jctt1tN-b0dJctbKbRJ4-57" vertex="1" connectable="0">
          <mxGeometry x="-0.1634" y="4" relative="1" as="geometry">
            <mxPoint as="offset" />
          </mxGeometry>
        </mxCell>
        <mxCell id="jctt1tN-b0dJctbKbRJ4-21" value="测试工程师" style="shape=umlActor;verticalLabelPosition=bottom;verticalAlign=top;html=1;outlineConnect=0;" parent="1" vertex="1">
          <mxGeometry x="1070" y="140" width="30" height="60" as="geometry" />
        </mxCell>
        <mxCell id="jctt1tN-b0dJctbKbRJ4-25" style="edgeStyle=orthogonalEdgeStyle;rounded=0;orthogonalLoop=1;jettySize=auto;html=1;entryX=1;entryY=0.5;entryDx=0;entryDy=0;curved=1;" parent="1" source="jctt1tN-b0dJctbKbRJ4-22" target="jctt1tN-b0dJctbKbRJ4-18" edge="1">
          <mxGeometry relative="1" as="geometry" />
        </mxCell>
        <mxCell id="jctt1tN-b0dJctbKbRJ4-26" value="6.&lt;span style=&quot;font-size: 12px; text-wrap-mode: wrap; background-color: rgb(236, 236, 236);&quot;&gt;绑定taskid与openid+did&lt;/span&gt;" style="edgeLabel;html=1;align=center;verticalAlign=middle;resizable=0;points=[];" parent="jctt1tN-b0dJctbKbRJ4-25" vertex="1" connectable="0">
          <mxGeometry x="-0.0286" relative="1" as="geometry">
            <mxPoint as="offset" />
          </mxGeometry>
        </mxCell>
        <mxCell id="jctt1tN-b0dJctbKbRJ4-22" value="测试任务" style="rounded=1;whiteSpace=wrap;html=1;fillColor=#f8cecc;strokeColor=#b85450;" parent="1" vertex="1">
          <mxGeometry x="810" y="180" width="120" height="60" as="geometry" />
        </mxCell>
        <mxCell id="jctt1tN-b0dJctbKbRJ4-31" style="edgeStyle=orthogonalEdgeStyle;rounded=0;orthogonalLoop=1;jettySize=auto;html=1;exitX=0.5;exitY=0;exitDx=0;exitDy=0;entryX=0.5;entryY=1;entryDx=0;entryDy=0;" parent="1" source="jctt1tN-b0dJctbKbRJ4-3" target="jctt1tN-b0dJctbKbRJ4-5" edge="1">
          <mxGeometry relative="1" as="geometry" />
        </mxCell>
        <mxCell id="jctt1tN-b0dJctbKbRJ4-32" value="9.发送埋点" style="edgeLabel;html=1;align=center;verticalAlign=middle;resizable=0;points=[];" parent="jctt1tN-b0dJctbKbRJ4-31" vertex="1" connectable="0">
          <mxGeometry x="-0.1412" y="2" relative="1" as="geometry">
            <mxPoint x="-8" y="42" as="offset" />
          </mxGeometry>
        </mxCell>
        <mxCell id="jctt1tN-b0dJctbKbRJ4-3" value="生态应用" style="rounded=1;whiteSpace=wrap;html=1;fillColor=#ffe6cc;strokeColor=#d79b00;" parent="1" vertex="1">
          <mxGeometry x="300" y="500" width="120" height="60" as="geometry" />
        </mxCell>
        <mxCell id="jctt1tN-b0dJctbKbRJ4-29" style="edgeStyle=orthogonalEdgeStyle;rounded=0;orthogonalLoop=1;jettySize=auto;html=1;exitX=0.5;exitY=0.5;exitDx=0;exitDy=0;exitPerimeter=0;entryX=0;entryY=0.5;entryDx=0;entryDy=0;curved=1;" parent="1" source="jctt1tN-b0dJctbKbRJ4-1" target="jctt1tN-b0dJctbKbRJ4-3" edge="1">
          <mxGeometry relative="1" as="geometry" />
        </mxCell>
        <mxCell id="jctt1tN-b0dJctbKbRJ4-30" value="8.操作生态应用产生埋点" style="edgeLabel;html=1;align=center;verticalAlign=middle;resizable=0;points=[];" parent="jctt1tN-b0dJctbKbRJ4-29" vertex="1" connectable="0">
          <mxGeometry x="0.0063" y="-1" relative="1" as="geometry">
            <mxPoint as="offset" />
          </mxGeometry>
        </mxCell>
        <mxCell id="jctt1tN-b0dJctbKbRJ4-37" style="edgeStyle=orthogonalEdgeStyle;rounded=0;orthogonalLoop=1;jettySize=auto;html=1;entryX=0.5;entryY=1;entryDx=0;entryDy=0;curved=1;" parent="1" source="jctt1tN-b0dJctbKbRJ4-5" target="jctt1tN-b0dJctbKbRJ4-18" edge="1">
          <mxGeometry relative="1" as="geometry">
            <Array as="points">
              <mxPoint x="360" y="500" />
              <mxPoint x="650" y="500" />
            </Array>
          </mxGeometry>
        </mxCell>
        <mxCell id="jctt1tN-b0dJctbKbRJ4-38" value="10.上报埋点到采集中心" style="edgeLabel;html=1;align=center;verticalAlign=middle;resizable=0;points=[];" parent="jctt1tN-b0dJctbKbRJ4-37" vertex="1" connectable="0">
          <mxGeometry x="0.2" relative="1" as="geometry">
            <mxPoint as="offset" />
          </mxGeometry>
        </mxCell>
        <mxCell id="jctt1tN-b0dJctbKbRJ4-39" value="kafkaProducer" style="rounded=1;whiteSpace=wrap;html=1;fillColor=#f8cecc;strokeColor=#b85450;" parent="1" vertex="1">
          <mxGeometry x="720" y="410" width="120" height="60" as="geometry" />
        </mxCell>
        <mxCell id="jctt1tN-b0dJctbKbRJ4-42" value="" style="rounded=0;whiteSpace=wrap;html=1;fillColor=#e1d5e7;strokeColor=#9673a6;" parent="1" vertex="1">
          <mxGeometry x="570" y="520" width="470" height="100" as="geometry" />
        </mxCell>
        <mxCell id="jctt1tN-b0dJctbKbRJ4-43" value="Odeon" style="text;html=1;align=center;verticalAlign=middle;whiteSpace=wrap;rounded=0;fontSize=20;" parent="1" vertex="1">
          <mxGeometry x="580" y="520" width="60" height="30" as="geometry" />
        </mxCell>
        <mxCell id="jctt1tN-b0dJctbKbRJ4-48" style="edgeStyle=orthogonalEdgeStyle;rounded=0;orthogonalLoop=1;jettySize=auto;html=1;exitX=1;exitY=0.5;exitDx=0;exitDy=0;curved=1;" parent="1" source="jctt1tN-b0dJctbKbRJ4-44" target="jctt1tN-b0dJctbKbRJ4-47" edge="1">
          <mxGeometry relative="1" as="geometry" />
        </mxCell>
        <mxCell id="jctt1tN-b0dJctbKbRJ4-49" value="13.写入" style="edgeLabel;html=1;align=center;verticalAlign=middle;resizable=0;points=[];" parent="jctt1tN-b0dJctbKbRJ4-48" vertex="1" connectable="0">
          <mxGeometry x="0.1568" y="22" relative="1" as="geometry">
            <mxPoint as="offset" />
          </mxGeometry>
        </mxCell>
        <mxCell id="jctt1tN-b0dJctbKbRJ4-44" value="Flink" style="rounded=1;whiteSpace=wrap;html=1;fillColor=#1ba1e2;fontColor=#ffffff;strokeColor=#006EAF;" parent="1" vertex="1">
          <mxGeometry x="745" y="540" width="120" height="60" as="geometry" />
        </mxCell>
        <mxCell id="jctt1tN-b0dJctbKbRJ4-45" style="edgeStyle=orthogonalEdgeStyle;rounded=0;orthogonalLoop=1;jettySize=auto;html=1;curved=1;" parent="1" source="jctt1tN-b0dJctbKbRJ4-39" target="jctt1tN-b0dJctbKbRJ4-44" edge="1">
          <mxGeometry relative="1" as="geometry" />
        </mxCell>
        <mxCell id="jctt1tN-b0dJctbKbRJ4-46" value="12.消费" style="edgeLabel;html=1;align=center;verticalAlign=middle;resizable=0;points=[];" parent="jctt1tN-b0dJctbKbRJ4-45" vertex="1" connectable="0">
          <mxGeometry x="0.2" relative="1" as="geometry">
            <mxPoint as="offset" />
          </mxGeometry>
        </mxCell>
        <mxCell id="jctt1tN-b0dJctbKbRJ4-50" style="edgeStyle=orthogonalEdgeStyle;rounded=0;orthogonalLoop=1;jettySize=auto;html=1;exitX=0.5;exitY=0;exitDx=0;exitDy=0;entryX=0.5;entryY=1;entryDx=0;entryDy=0;curved=1;" parent="1" source="jctt1tN-b0dJctbKbRJ4-47" target="jctt1tN-b0dJctbKbRJ4-22" edge="1">
          <mxGeometry relative="1" as="geometry" />
        </mxCell>
        <mxCell id="jctt1tN-b0dJctbKbRJ4-51" value="14. 读取校验日志" style="edgeLabel;html=1;align=center;verticalAlign=middle;resizable=0;points=[];" parent="jctt1tN-b0dJctbKbRJ4-50" vertex="1" connectable="0">
          <mxGeometry x="0.064" y="-3" relative="1" as="geometry">
            <mxPoint as="offset" />
          </mxGeometry>
        </mxCell>
        <mxCell id="jctt1tN-b0dJctbKbRJ4-47" value="MongoDB" style="rounded=1;whiteSpace=wrap;html=1;fillColor=#60a917;fontColor=#ffffff;strokeColor=#2D7600;" parent="1" vertex="1">
          <mxGeometry x="890" y="410" width="120" height="60" as="geometry" />
        </mxCell>
        <mxCell id="jctt1tN-b0dJctbKbRJ4-52" style="edgeStyle=orthogonalEdgeStyle;rounded=0;orthogonalLoop=1;jettySize=auto;html=1;entryX=0.5;entryY=0;entryDx=0;entryDy=0;entryPerimeter=0;curved=1;" parent="1" source="jctt1tN-b0dJctbKbRJ4-22" target="jctt1tN-b0dJctbKbRJ4-21" edge="1">
          <mxGeometry relative="1" as="geometry">
            <Array as="points">
              <mxPoint x="870" y="90" />
              <mxPoint x="1085" y="90" />
            </Array>
          </mxGeometry>
        </mxCell>
        <mxCell id="jctt1tN-b0dJctbKbRJ4-53" value="15. 生成测试报告" style="edgeLabel;html=1;align=center;verticalAlign=middle;resizable=0;points=[];" parent="jctt1tN-b0dJctbKbRJ4-52" vertex="1" connectable="0">
          <mxGeometry x="0.0197" y="1" relative="1" as="geometry">
            <mxPoint as="offset" />
          </mxGeometry>
        </mxCell>
        <mxCell id="xbL5wuw-89poL4qA_k8h-3" style="edgeStyle=orthogonalEdgeStyle;rounded=0;orthogonalLoop=1;jettySize=auto;html=1;exitX=0.5;exitY=1;exitDx=0;exitDy=0;entryX=0;entryY=0.5;entryDx=0;entryDy=0;curved=1;" edge="1" parent="1" source="jctt1tN-b0dJctbKbRJ4-5" target="jctt1tN-b0dJctbKbRJ4-18">
          <mxGeometry relative="1" as="geometry" />
        </mxCell>
        <mxCell id="xbL5wuw-89poL4qA_k8h-4" value="17. 关闭ws连接" style="edgeLabel;html=1;align=center;verticalAlign=middle;resizable=0;points=[];" vertex="1" connectable="0" parent="xbL5wuw-89poL4qA_k8h-3">
          <mxGeometry x="0.1727" y="18" relative="1" as="geometry">
            <mxPoint x="31" y="8" as="offset" />
          </mxGeometry>
        </mxCell>
        <mxCell id="xbL5wuw-89poL4qA_k8h-5" style="edgeStyle=orthogonalEdgeStyle;rounded=0;orthogonalLoop=1;jettySize=auto;html=1;entryX=0.5;entryY=0;entryDx=0;entryDy=0;curved=1;" edge="1" parent="1" source="jctt1tN-b0dJctbKbRJ4-1" target="jctt1tN-b0dJctbKbRJ4-5">
          <mxGeometry relative="1" as="geometry">
            <Array as="points">
              <mxPoint x="155" y="160" />
              <mxPoint x="360" y="160" />
            </Array>
          </mxGeometry>
        </mxCell>
        <mxCell id="xbL5wuw-89poL4qA_k8h-6" value="18. 退出debug模式" style="edgeLabel;html=1;align=center;verticalAlign=middle;resizable=0;points=[];" vertex="1" connectable="0" parent="xbL5wuw-89poL4qA_k8h-5">
          <mxGeometry x="-0.1008" y="-5" relative="1" as="geometry">
            <mxPoint x="8" y="-5" as="offset" />
          </mxGeometry>
        </mxCell>
      </root>
    </mxGraphModel>
  </diagram>
</mxfile>
